Patient4_TMGait_0pt4_01_right_44_EMG.mot
version=1
nRows=40
nColumns=33
inDegrees=no
endheader
time	1LAddLong	2LGlutMax	3LGlutMed	4LIliopsoas	5LSemiMemb	6LBicFemLong	7LRecFem	8LVastMed	9LVastLat	10LGasMed	11LTibAnt	12lTibPost	13LPeroneusLong	14LSol	15LExtDigLong	16LFlexDigLong	17RAddLong	18RGlutMax	19RGlutMed	20RIliopsoas	21RSemiMemb	22RBicFemLong	23RRecFem	24RVastMed	25RVastLat	26RGasMed	27RTibAnt	28RTibPost	29RPeroneusLong	30RSol	31RExtDigLong	32RFlexDigLong
57.985	-0.003357	0.074463	0.000458	0.016327	-0.007629	-0.055542	0.15396	-0.006866	0.052338	-0.063171	0.075989	0.000916	0.021973	-0.12054	0.065002	-0.00351	-0.014343	-1.1847	0.11215	0.040436	-0.4039	-0.15625	0.28946	-0.023956	-0.006409	-0.042114	0.00824	-0.20767	-0.17929	-0.99472	0.001984	-0.005341
57.986	-0.004578	0.10574	-0.033112	0.003052	-0.001831	-0.041199	0.10498	-0.014343	0.068512	-0.078888	-0.011139	0.007782	0.036926	0.010986	0.094299	-0.001831	-0.041656	-1.1729	0.12299	0.087891	-0.53329	-0.039368	0.11414	0.055695	-0.002594	-0.060577	0.44037	-0.1062	-0.062714	-1.1963	-0.005493	-0.011139
57.987	-0.001984	0.14084	-0.041962	-0.039673	-0.003815	-0.040436	0.13962	-0.012512	0.077515	-0.015259	-0.014954	0.002899	-0.071869	-0.00061	0.00473	-0.003052	-0.043945	-1.0619	0.56656	0.008698	-0.10544	0.036926	0.016785	0.12726	0.013885	0.01358	0.82626	0.43243	-0.041199	-0.3392	-0.005798	-0.006866
57.988	0.005188	0.14999	-0.003662	-0.046844	0.005646	-0.07019	0.11627	-0.01297	0.067596	0.034485	-0.1622	0.006561	-0.11581	-0.088501	-0.12375	0.006409	-0.015106	-1.0591	0.5481	-0.039673	0.074005	0.15274	0.080566	0.069122	0.000153	0.054474	0.10819	0.28748	0.29007	-0.17151	-0.000916	-0.007019
57.989	0.001068	0.1442	-0.046844	-0.028839	-0.005188	-0.038147	0.044556	0.000305	0.063477	-0.03479	-0.4451	0.005035	0.044403	-0.021973	-0.10895	0.007019	-0.023651	-1.2511	-0.60806	0.010376	0.21118	0.36896	0.078888	0.12894	-0.026855	0.049744	0.070953	0.09491	0.4454	-0.034943	0.001831	-0.00885
57.99	-0.002136	0.17563	-0.04837	-0.001373	-0.00351	-0.044403	0.021667	0.007172	0.050354	-0.06012	-0.008545	-0.000153	0.06012	0.16632	0.34546	0.017395	-0.019226	-1.2518	-1.3861	-0.02121	0.23773	0.46448	0.072632	0.1915	-0.025177	0.056152	-0.19714	0.13397	0.29526	0.66757	0.000153	-0.001831
57.991	0.007019	0.14603	-0.059204	0.011749	0	-0.033875	0.10666	0.026703	0.048523	-0.027466	-0.008698	0.005035	-0.093994	0.18097	0.33432	0.003967	-0.035706	-1.2509	-1.2953	-0.082855	0.20233	0.46066	0.056458	0.27161	-0.023346	0.029449	-0.35446	0.045013	0.20309	0.58365	0	0.00061
57.992	0.001221	0.13916	-0.056	0.001221	-0.005188	0.003662	0.21332	0.007019	-0.010376	0.00061	-0.039215	-0.009003	-0.15854	0.080261	-0.18845	-0.013123	-0.016937	-1.1705	-0.94986	-0.009766	0.1471	0.26672	0.097351	0.14389	-0.052185	-0.000153	0.19333	-0.007477	0.062714	0.2179	-0.002441	0.000763
57.993	-0.001984	0.12482	-0.034027	-0.003815	-0.00824	0.008392	0.25833	0.009918	-0.064697	-0.01709	-0.029449	0.003967	-0.002136	0.015106	-0.016022	-0.010681	0.009003	-1.1673	-0.72861	0.057373	-0.007935	0.06485	0.12161	0.033875	-0.11505	-0.0177	0.35431	-0.013123	-0.045929	0.13062	0.000763	-0.001984
57.994	-0.005341	0.083466	-0.045166	0.010071	-0.014648	0.010834	0.24338	0.015106	-0.006409	-0.022888	0.027313	0.005798	0.050507	-0.059509	0.066986	-0.020142	-0.015564	-1.257	-0.95901	0.10498	-0.03952	-0.046539	0.071869	-0.028076	-0.11292	0.00412	0.007172	-0.038147	0.00824	-0.006561	0.001984	-0.002899
57.995	-0.003204	0.076752	-0.068817	0.016785	0.00061	0.011597	0.30518	0.014191	-0.027618	-0.001831	0.18204	0.006714	-0.014496	-0.15564	-0.29312	-0.019684	-0.014954	-1.1946	-0.84106	0.06073	-0.17868	-0.10376	0.1593	-0.18249	-0.20172	0.004425	-0.058289	-0.020294	0.24139	0.11749	-0.001221	0.003204
57.996	-0.001373	0.098724	-0.1062	0.012512	-0.002899	-0.01297	0.30212	0.022278	-0.037689	-0.015869	0.087891	0.003967	0.014343	-0.1059	-0.15381	-0.019836	0.011292	-1.2558	-0.98709	0.023651	-0.17883	-0.25253	0.098724	-0.2803	-0.26535	0.002594	-0.00412	-0.029144	0.28244	0.22675	-0.005646	-0.00061
57.997	-0.005798	0.088806	-0.11215	-0.007324	-0.006714	-0.0177	0.31601	0.017242	-0.035095	0.004272	-0.28778	-0.003204	0.014191	-0.11368	-0.19882	-0.021667	-0.009766	-1.1288	-0.60959	-0.027618	0.20889	-0.41107	-0.057373	-0.13153	-0.17456	0.012512	0.00351	-0.024109	0.25085	0.20096	-0.000305	0.001068
57.998	-0.000153	0.054932	-0.10834	0.028839	-0.004425	-0.017395	0.36362	0.025482	-0.019531	-0.002441	-0.27115	0.022125	0.055389	-0.039825	-0.17059	-0.022278	-0.016632	-1.0811	-0.32272	-0.04303	0.4007	-0.31265	-0.06073	0.07843	-0.030365	0.003815	0.1442	-0.033112	0.12375	0.1413	-0.000305	-0.003052
57.999	0.000916	0.022278	-0.14069	0.036621	-0.004578	-0.014496	0.30273	0.038605	-0.037689	0.02594	-0.097656	0.020294	-0.052032	0.011597	0.047913	-0.029755	-0.011597	-1.0617	-0.57632	0.043335	0.20096	-0.13611	0.011902	0.10712	0.10788	0.015106	0.052032	-0.020905	0.20676	0.22461	0.000153	-0.006409
58	0.007935	0.054932	-0.1268	0.013885	-0.004883	-0.022583	0.18829	0.024261	-0.045319	0.039673	0.0737	0.005493	-0.13229	0.030823	0.60913	-0.033569	-0.005493	-0.83206	-0.31616	0.005798	0.1004	-0.11261	0.007172	0.12283	0.040436	0.024414	-0.38696	-0.023041	0.28915	0.13641	0.001221	-0.008392
58.001	0.010681	0.074005	-0.14038	0.00061	-0.005341	0.010834	0.12985	0.019226	-0.066223	0.013733	0.13397	0.004272	-0.10376	0.028076	-0.37231	-0.028839	0.002899	-0.64224	-0.53329	0.009155	0.053406	-0.059814	-0.036163	0.090027	-0.016937	0.027771	-0.30487	-0.034027	0.15747	0.15167	0.00061	-0.015259
58.002	0.010986	0.064087	-0.099792	-0.032654	-0.00351	0.00061	0.1564	0.023346	-0.081635	0.010223	0.20706	0.007935	-0.066071	0.098267	0.075226	-0.030975	0.006104	-0.51712	-0.66773	-0.026703	0.017395	-0.021973	-0.19592	0.098877	0.13534	0.029144	0.2214	-0.038147	0.24429	0.20111	0.003052	-0.018311
58.003	0.002136	0.046997	-0.060883	-0.016937	-0.001984	-0.007935	0.1326	0.015564	-0.072021	-0.019684	0.27008	0.001526	-0.046387	0.09079	-0.55069	-0.032501	0.015564	-0.35736	-0.75043	0.030518	-0.007782	-0.053253	-0.007477	0.063477	0.093689	0.052338	0.14999	-0.031891	-0.23117	0.13534	-0.00061	-0.009308
58.004	0.00473	0.021973	-0.1265	0.01358	0.004425	-0.008698	0.16037	0.017548	-0.070038	-0.028687	0.24841	0.002289	-0.013123	0.059967	-0.39642	-0.034637	0.032806	-0.19836	-0.98648	0.10178	-0.014648	-0.093842	0.076447	0.033417	0.077209	0.027466	-0.32959	-0.054474	-0.1709	0.18463	-0.001526	-0.015259
58.005	0.008392	0.040436	-0.099487	-0.013123	0.000763	0.001831	0.12604	0.009308	-0.077515	-0.028076	0.16281	0.005493	0.046387	0.12619	0.079193	-0.018463	0.027313	-0.040588	-0.65674	0.051422	-0.016174	-0.081482	0.084991	0.011139	0.071106	-0.003204	-0.21179	-0.14832	-0.40436	0.041656	-0.002441	-0.007172
58.006	0.006561	0.005035	-0.10941	-0.009766	-0.001526	0.023041	0.058441	0.006561	-0.076447	-0.006256	0.06485	0.024109	0.017395	0.14923	0.14572	-0.028839	0.031738	-0.075684	0.1236	-0.039063	-0.022583	-0.038452	0.043335	0.019989	0.042419	-0.037537	-0.12131	-0.057831	-0.66406	-0.44678	-0.000458	-0.013885
58.007	0.006409	0.031281	-0.15152	-0.004883	0.000153	0.022278	0.11246	0.00061	-0.062561	0.037689	-0.19241	0.002136	-0.11368	0.023193	0.25482	-0.034027	0.033875	0.029449	0.298	-0.013428	-0.015259	-0.026398	0.10452	-0.024872	0.029907	-0.073547	-0.11887	0.092468	-0.29953	-0.50674	-0.001678	-0.014496
58.008	0.005035	-0.015259	-0.14099	0.034943	-0.001678	0.022583	0.062103	0.007324	-0.054474	0.061951	-0.11917	0.002594	-0.16953	-0.030823	0.043488	-0.026093	0.034485	0.011292	-0.40405	0.021667	-0.031433	-0.010223	0.20783	-0.049286	-0.0383	-0.081177	-0.12253	-0.079956	-0.099945	-0.43289	-0.001831	-0.013885
58.009	0.005798	0.018311	-0.13534	0.025482	0.001678	0.001068	0.1889	0.00061	-0.043335	0.035858	-0.090942	-0.002594	-0.12024	0.02594	0.089874	-0.026855	0.036926	0.098419	-0.52368	0.017853	-0.001831	-0.010834	0.29373	-0.04715	-0.052948	-0.072784	-0.067444	0.016785	0.24353	-0.67917	-0.001526	-0.012054
58.01	0.011139	0.027771	-0.1593	0.007629	-0.010071	0.02243	0.23651	-0.005035	-0.03067	0.009766	-0.121	0.017395	-0.035095	0.1088	1.0966	-0.003967	0.049286	0.27374	0.25162	-0.030823	0.056305	0.010376	0.24262	-0.088501	-0.053864	-0.058899	0.16373	0.14999	0.32913	-0.21866	-0.001678	-0.015259
58.011	0.004578	0.063629	-0.19455	0.019531	0	0.003967	0.25864	0.010529	-0.015259	0.041962	-0.088348	0.006561	-0.089111	0.14542	-0.055389	-0.001831	0.046234	0.27542	0.48416	-0.086365	0.072784	0.032349	0.009918	-0.14084	-0.066071	-0.044708	0.3775	0.015564	0.29892	0.37827	-0.001678	-0.014954
58.012	0.003052	0.057831	-0.21454	0.016479	-0.003815	-0.002747	0.31113	0.003967	-0.000153	0.00412	0.04425	0.000305	-0.052032	0.14542	-0.068665	-0.006714	0.013275	0.31418	-0.10727	-0.068207	-0.023041	0.069122	0.034943	-0.20798	-0.030975	-0.012512	0.62805	0.067596	0.35339	0.76111	-0.000763	-0.011292
58.013	0.00885	0.052338	-0.1915	0.012207	-0.002899	-0.007019	0.27893	0.002136	-0.01709	-0.019836	0.081482	0.001678	-0.010223	0.12192	0.33264	-0.018616	0.018921	0.36179	-0.50201	-0.025177	-0.26657	0.063324	0.25513	-0.16403	0.22995	0.005188	0.14191	0.023956	0.64575	-0.41184	-0.001831	-0.015869
58.014	0.004425	0.075836	-0.14267	0.038452	-0.001221	-0.009003	0.13672	0.004272	-0.021362	-0.016022	0.17014	-0.000763	-0.015717	0.02594	-0.19928	-0.016327	0.025177	0.42816	-0.47928	-0.022888	-0.36545	0.091858	0.31281	0.009308	0.4071	0.015259	-0.001221	-0.019836	0.49103	-1.2268	-0.001373	-0.012817
58.015	0.003357	0.088043	-0.177	-0.009308	0.011749	-0.024261	0.03952	-0.001373	-0.019684	0.014648	0.24872	0.020294	-0.066528	-0.057068	-0.15289	-0.015411	0.05722	0.54352	-0.32211	0.02594	-0.36621	0.054016	0.32196	0.079498	0.30838	0.012207	-0.079346	-0.045929	0.069885	-0.88364	-0.004578	-0.013733
58.016	0.00824	0.11108	-0.17578	-0.011292	0.008392	-0.018158	-0.10223	-0.004883	-0.016327	0.026398	0.19501	0.031128	-0.11169	-0.013428	-0.45548	-0.012817	0.077209	0.67963	-0.36529	0.15686	0.096588	-0.10773	0.51254	0.049286	0.20889	-0.014191	0.19379	0.02655	-0.20035	-0.25116	0	-0.016785
58.017	0.004425	0.088654	-0.20096	-0.00824	0.00473	-0.012512	-0.24231	0.001678	-0.023499	0.016327	0.039673	0.000153	-0.095978	0.005188	0.075226	-0.016632	0.066986	0.78049	-0.51148	0.14008	0.20905	-0.15991	0.59998	-0.088501	0.033722	-0.011749	0.35263	0.001678	-0.3093	0.37949	-0.000916	-0.013123
58.018	0.007629	0.079193	-0.18417	-0.02121	0.003967	0	-0.16571	0.00885	-0.057068	0.007324	-0.052338	-0.008392	-0.055542	-0.047302	-0.12833	-0.012054	-0.036621	0.90744	-0.003204	0.00351	-0.032349	-0.025635	-0.025787	-0.12894	-0.20309	0.001068	-0.40512	-0.003052	-0.018616	0.47409	0.006866	-0.001526
58.019	0.00885	0.092468	-0.17425	-0.006409	0	-0.003357	-0.030975	0.013733	-0.042267	-0.00885	-0.26382	-0.005341	0.028229	-0.012665	0.15305	-0.006866	-0.075531	0.96298	0.5101	-0.10681	0.04303	0.05661	-0.65735	-0.1445	-0.52643	0.007782	-1.4644	-0.007019	0.26245	0.47424	-0.000305	-0.010986
58.02	0.005188	0.075226	-0.17075	0.041809	-0.002441	-0.015106	0.1648	0.018311	-0.048676	-0.027313	-0.19898	-0.006104	0.056305	0.050812	0.57938	-0.00885	-0.048676	1.0196	0.51865	-0.061188	0.077057	0.11643	-0.74799	-0.018311	-0.50842	0.003052	-1.1781	-0.010834	0.17181	0.64941	0.001373	-0.012054
58.021	0.00824	0.075989	-0.17868	0.050201	-0.009155	-0.012665	0.31189	0.027313	-0.066071	-0.03479	-0.067139	-0.014648	0.039825	0.13748	-0.51498	-0.005646	-0.016022	1.1089	0.62393	-0.028381	0.024719	0.024872	-0.36941	0.086212	-0.22186	-0.00061	-1.0777	-0.01297	0.049744	0.7193	-0.000305	-0.01236
58.022	0.004425	0.063019	-0.22812	-0.016632	0.002747	-0.018005	0.37949	0.031433	-0.046997	-0.003815	-0.090637	-0.00351	0.04837	0.094147	-0.49561	-0.011139	-0.001373	1.261	0.17334	0.028076	0.01297	-0.054321	0.037231	0.12802	0.054626	-0.015411	-0.035858	-0.01709	0.004272	0.50659	-0.000305	-0.005341
58.023	0.011597	0.042267	-0.21668	-0.025482	0.006561	-0.026398	0.28397	0.039215	-0.035248	-0.001068	-0.17517	0.003357	0.083008	-0.002441	-0.36179	-0.006256	0.00412	1.4368	0.32745	0.055237	0.002899	-0.086365	0.2713	-0.001984	-0.000305	-0.025482	0.64789	-0.017395	0.007782	0.39887	-0.001526	-0.00351
58.024	0.009613	0.066528	-0.1712	-0.019989	-0.001373	-0.016327	0.14694	0.04303	-0.026398	0.042877	-0.08194	0.006409	0.014648	-0.047913	-0.08316	-0.016479	0.003357	1.4079	0.59357	-0.014648	0.041809	-0.093079	0.16083	-0.12375	-0.091553	-0.005341	0.82489	-0.00885	0.083008	0.15793	-0.00412	0.001373
